# xmcd
#
# Track frame offsets:
#  150
#  17186
#  32852
#  48916
#  62266
#  75254
#  89323
#  99239
#  113306
#  122031
#  139956
#  150746
#  163023
#
# Disc length: 2445 seconds
#
# Revision: 0
# Processed by: cddbd v1.5.2PL0 Copyright (c) Steve Scherf et al.
# Submitted via: AltoMP3_Maker 3.0
#
DISCID=92098b0d
DTITLE=Howlin' Wolf - The London Howlin' Wolf Sessions
DYEAR=1900
DGENRE=
TTITLE0=Rockin' daddy
TTITLE1=I ain't superstitious
TTITLE2=Sittin' on top of the world
TTITLE3=Worried about my baby
TTITLE4=What a woman!
TTITLE5=Poor boy
TTITLE6=Built for comfort
TTITLE7=Who's been talking?
TTITLE8=The red rooster (rehearsal)
TTITLE9=The red rooster
TTITLE10=Do the Do
TTITLE11=Highway 49
TTITLE12=Wang-dang-doodle
EXTD=
EXTT0=
EXTT1=
EXTT2=
EXTT3=
EXTT4=
EXTT5=
EXTT6=
EXTT7=
EXTT8=
EXTT9=
EXTT10=
EXTT11=
EXTT12=
PLAYORDER=
